<svg width="256" height="256" viewBox="0 0 15 15" xmlns="http://www.w3.org/2000/svg"><rect x="0" y="0" width="15" height="15" rx="8" fill="none"/><svg xmlns="http://www.w3.org/2000/svg" viewBox="0 0 15 15" fill="#000000" x="0" y="0" width="15" height="15"><path fill="#000000" fill-rule="evenodd" d="M1.5 3a.5.5 0 0 0 0 1h12a.5.5 0 0 0 0-1h-12ZM1 7.5a.5.5 0 0 1 .5-.5h12a.5.5 0 0 1 0 1h-12a.5.5 0 0 1-.5-.5Zm0 4a.5.5 0 0 1 .5-.5h12a.5.5 0 0 1 0 1h-12a.5.5 0 0 1-.5-.5Z" clip-rule="evenodd"/></svg></svg>